<mxfile host="app.diagrams.net" agent="Mozilla/5.0 (Windows NT 10.0; Win64; x64) AppleWebKit/537.36 (KHTML, like Gecko) Chrome/129.0.0.0 Safari/537.36" version="24.7.17">
  <diagram name="第 1 页" id="o1mMscFMRc-WOoJ7htbL">
    <mxGraphModel dx="878" dy="2405" grid="0" gridSize="10" guides="1" tooltips="1" connect="1" arrows="1" fold="1" page="1" pageScale="1" pageWidth="2200" pageHeight="1920" math="0" shadow="0">
      <root>
        <mxCell id="0" />
        <mxCell id="1" parent="0" />
        <mxCell id="hL_Gmnz1QXYamqsoR2g8-5" value="&lt;font color=&quot;#ff0000&quot; style=&quot;font-size: 16px;&quot; face=&quot;Comic Sans MS&quot;&gt;_prev&lt;/font&gt;" style="rounded=1;whiteSpace=wrap;html=1;strokeWidth=2;fillWeight=4;hachureGap=8;hachureAngle=45;fillColor=#b1ddf0;sketch=1;strokeColor=#10739e;" vertex="1" parent="1">
          <mxGeometry x="323" y="-1453" width="70" height="50" as="geometry" />
        </mxCell>
        <mxCell id="hL_Gmnz1QXYamqsoR2g8-6" value="&lt;font face=&quot;Comic Sans MS&quot; style=&quot;font-size: 16px;&quot; color=&quot;#3399ff&quot;&gt;_data&lt;/font&gt;" style="rounded=1;whiteSpace=wrap;html=1;strokeWidth=2;fillWeight=4;hachureGap=8;hachureAngle=45;fillColor=#fad9d5;sketch=1;strokeColor=#ae4132;" vertex="1" parent="1">
          <mxGeometry x="393" y="-1453" width="70" height="50" as="geometry" />
        </mxCell>
        <mxCell id="hL_Gmnz1QXYamqsoR2g8-7" value="&lt;font color=&quot;#ff0000&quot; face=&quot;Comic Sans MS&quot; size=&quot;3&quot;&gt;_next&lt;/font&gt;" style="rounded=1;whiteSpace=wrap;html=1;strokeWidth=2;fillWeight=4;hachureGap=8;hachureAngle=45;fillColor=#b1ddf0;sketch=1;strokeColor=#10739e;" vertex="1" parent="1">
          <mxGeometry x="463" y="-1453" width="70" height="50" as="geometry" />
        </mxCell>
        <mxCell id="hL_Gmnz1QXYamqsoR2g8-8" value="" style="endArrow=classic;html=1;rounded=0;exitX=1;exitY=0.5;exitDx=0;exitDy=0;" edge="1" parent="1" source="hL_Gmnz1QXYamqsoR2g8-7">
          <mxGeometry width="50" height="50" relative="1" as="geometry">
            <mxPoint x="543" y="-1423" as="sourcePoint" />
            <mxPoint x="593" y="-1428" as="targetPoint" />
          </mxGeometry>
        </mxCell>
        <mxCell id="hL_Gmnz1QXYamqsoR2g8-9" value="" style="endArrow=classic;html=1;rounded=0;exitX=0;exitY=0.5;exitDx=0;exitDy=0;" edge="1" parent="1" source="hL_Gmnz1QXYamqsoR2g8-5">
          <mxGeometry width="50" height="50" relative="1" as="geometry">
            <mxPoint x="253" y="-1423" as="sourcePoint" />
            <mxPoint x="263" y="-1428" as="targetPoint" />
          </mxGeometry>
        </mxCell>
        <mxCell id="hL_Gmnz1QXYamqsoR2g8-10" value="&lt;font color=&quot;#3399ff&quot; face=&quot;Comic Sans MS&quot; style=&quot;font-size: 18px;&quot;&gt;struct ListNode节点&lt;/font&gt;" style="text;html=1;align=center;verticalAlign=middle;resizable=0;points=[];autosize=1;strokeColor=none;fillColor=none;" vertex="1" parent="1">
          <mxGeometry x="318" y="-1520" width="190" height="40" as="geometry" />
        </mxCell>
        <mxCell id="hL_Gmnz1QXYamqsoR2g8-21" value="&lt;font color=&quot;#ff0000&quot; style=&quot;font-size: 16px;&quot; face=&quot;Comic Sans MS&quot;&gt;_prev&lt;/font&gt;" style="rounded=1;whiteSpace=wrap;html=1;strokeWidth=2;fillWeight=4;hachureGap=8;hachureAngle=45;fillColor=#b1ddf0;sketch=1;strokeColor=#10739e;" vertex="1" parent="1">
          <mxGeometry x="113" y="-1720" width="50" height="30" as="geometry" />
        </mxCell>
        <mxCell id="hL_Gmnz1QXYamqsoR2g8-22" value="&lt;font face=&quot;Comic Sans MS&quot; style=&quot;font-size: 16px;&quot; color=&quot;#3399ff&quot;&gt;_data&lt;/font&gt;" style="rounded=1;whiteSpace=wrap;html=1;strokeWidth=2;fillWeight=4;hachureGap=8;hachureAngle=45;fillColor=#fad9d5;sketch=1;strokeColor=#ae4132;" vertex="1" parent="1">
          <mxGeometry x="163" y="-1720" width="50" height="30" as="geometry" />
        </mxCell>
        <mxCell id="hL_Gmnz1QXYamqsoR2g8-23" value="&lt;font color=&quot;#ff0000&quot; face=&quot;Comic Sans MS&quot; size=&quot;3&quot;&gt;_next&lt;/font&gt;" style="rounded=1;whiteSpace=wrap;html=1;strokeWidth=2;fillWeight=4;hachureGap=8;hachureAngle=45;fillColor=#b1ddf0;sketch=1;strokeColor=#10739e;" vertex="1" parent="1">
          <mxGeometry x="213" y="-1720" width="50" height="30" as="geometry" />
        </mxCell>
        <mxCell id="hL_Gmnz1QXYamqsoR2g8-31" value="&lt;font color=&quot;#ff0000&quot; style=&quot;font-size: 16px;&quot; face=&quot;Comic Sans MS&quot;&gt;_prev&lt;/font&gt;" style="rounded=1;whiteSpace=wrap;html=1;strokeWidth=2;fillWeight=4;hachureGap=8;hachureAngle=45;fillColor=#b1ddf0;sketch=1;strokeColor=#10739e;" vertex="1" parent="1">
          <mxGeometry x="308" y="-1720" width="50" height="30" as="geometry" />
        </mxCell>
        <mxCell id="hL_Gmnz1QXYamqsoR2g8-32" value="&lt;font face=&quot;Comic Sans MS&quot; style=&quot;font-size: 16px;&quot; color=&quot;#3399ff&quot;&gt;_data&lt;/font&gt;" style="rounded=1;whiteSpace=wrap;html=1;strokeWidth=2;fillWeight=4;hachureGap=8;hachureAngle=45;fillColor=#fad9d5;sketch=1;strokeColor=#ae4132;" vertex="1" parent="1">
          <mxGeometry x="358" y="-1720" width="50" height="30" as="geometry" />
        </mxCell>
        <mxCell id="hL_Gmnz1QXYamqsoR2g8-33" value="&lt;font color=&quot;#ff0000&quot; face=&quot;Comic Sans MS&quot; size=&quot;3&quot;&gt;_next&lt;/font&gt;" style="rounded=1;whiteSpace=wrap;html=1;strokeWidth=2;fillWeight=4;hachureGap=8;hachureAngle=45;fillColor=#b1ddf0;sketch=1;strokeColor=#10739e;" vertex="1" parent="1">
          <mxGeometry x="408" y="-1720" width="50" height="30" as="geometry" />
        </mxCell>
        <mxCell id="hL_Gmnz1QXYamqsoR2g8-34" value="" style="endArrow=classic;html=1;rounded=0;exitX=1;exitY=0.25;exitDx=0;exitDy=0;entryX=0;entryY=0.25;entryDx=0;entryDy=0;" edge="1" parent="1" source="hL_Gmnz1QXYamqsoR2g8-23" target="hL_Gmnz1QXYamqsoR2g8-31">
          <mxGeometry width="50" height="50" relative="1" as="geometry">
            <mxPoint x="280" y="-1710" as="sourcePoint" />
            <mxPoint x="320" y="-1710" as="targetPoint" />
          </mxGeometry>
        </mxCell>
        <mxCell id="hL_Gmnz1QXYamqsoR2g8-35" value="" style="endArrow=classic;html=1;rounded=0;exitX=0;exitY=0.75;exitDx=0;exitDy=0;entryX=1;entryY=0.75;entryDx=0;entryDy=0;" edge="1" parent="1" source="hL_Gmnz1QXYamqsoR2g8-31" target="hL_Gmnz1QXYamqsoR2g8-23">
          <mxGeometry width="50" height="50" relative="1" as="geometry">
            <mxPoint x="340" y="-1670" as="sourcePoint" />
            <mxPoint x="263" y="-1638.5" as="targetPoint" />
          </mxGeometry>
        </mxCell>
        <mxCell id="hL_Gmnz1QXYamqsoR2g8-45" value="&lt;font color=&quot;#ff0000&quot; style=&quot;font-size: 16px;&quot; face=&quot;Comic Sans MS&quot;&gt;_prev&lt;/font&gt;" style="rounded=1;whiteSpace=wrap;html=1;strokeWidth=2;fillWeight=4;hachureGap=8;hachureAngle=45;fillColor=#b1ddf0;sketch=1;strokeColor=#10739e;" vertex="1" parent="1">
          <mxGeometry x="494" y="-1720" width="50" height="30" as="geometry" />
        </mxCell>
        <mxCell id="hL_Gmnz1QXYamqsoR2g8-46" value="&lt;font face=&quot;Comic Sans MS&quot; style=&quot;font-size: 16px;&quot; color=&quot;#3399ff&quot;&gt;_data&lt;/font&gt;" style="rounded=1;whiteSpace=wrap;html=1;strokeWidth=2;fillWeight=4;hachureGap=8;hachureAngle=45;fillColor=#fad9d5;sketch=1;strokeColor=#ae4132;" vertex="1" parent="1">
          <mxGeometry x="544" y="-1720" width="50" height="30" as="geometry" />
        </mxCell>
        <mxCell id="hL_Gmnz1QXYamqsoR2g8-47" value="&lt;font color=&quot;#ff0000&quot; face=&quot;Comic Sans MS&quot; size=&quot;3&quot;&gt;_next&lt;/font&gt;" style="rounded=1;whiteSpace=wrap;html=1;strokeWidth=2;fillWeight=4;hachureGap=8;hachureAngle=45;fillColor=#b1ddf0;sketch=1;strokeColor=#10739e;" vertex="1" parent="1">
          <mxGeometry x="594" y="-1720" width="50" height="30" as="geometry" />
        </mxCell>
        <mxCell id="hL_Gmnz1QXYamqsoR2g8-48" value="&lt;font color=&quot;#ff0000&quot; style=&quot;font-size: 16px;&quot; face=&quot;Comic Sans MS&quot;&gt;_prev&lt;/font&gt;" style="rounded=1;whiteSpace=wrap;html=1;strokeWidth=2;fillWeight=4;hachureGap=8;hachureAngle=45;fillColor=#b1ddf0;sketch=1;strokeColor=#10739e;" vertex="1" parent="1">
          <mxGeometry x="689" y="-1720" width="50" height="30" as="geometry" />
        </mxCell>
        <mxCell id="hL_Gmnz1QXYamqsoR2g8-49" value="&lt;font face=&quot;Comic Sans MS&quot; style=&quot;font-size: 16px;&quot; color=&quot;#3399ff&quot;&gt;_data&lt;/font&gt;" style="rounded=1;whiteSpace=wrap;html=1;strokeWidth=2;fillWeight=4;hachureGap=8;hachureAngle=45;fillColor=#fad9d5;sketch=1;strokeColor=#ae4132;" vertex="1" parent="1">
          <mxGeometry x="739" y="-1720" width="50" height="30" as="geometry" />
        </mxCell>
        <mxCell id="hL_Gmnz1QXYamqsoR2g8-50" value="&lt;font color=&quot;#ff0000&quot; face=&quot;Comic Sans MS&quot; size=&quot;3&quot;&gt;_next&lt;/font&gt;" style="rounded=1;whiteSpace=wrap;html=1;strokeWidth=2;fillWeight=4;hachureGap=8;hachureAngle=45;fillColor=#b1ddf0;sketch=1;strokeColor=#10739e;" vertex="1" parent="1">
          <mxGeometry x="789" y="-1720" width="50" height="30" as="geometry" />
        </mxCell>
        <mxCell id="hL_Gmnz1QXYamqsoR2g8-51" value="" style="endArrow=classic;html=1;rounded=0;exitX=1;exitY=0.25;exitDx=0;exitDy=0;entryX=0;entryY=0.25;entryDx=0;entryDy=0;" edge="1" parent="1" source="hL_Gmnz1QXYamqsoR2g8-47" target="hL_Gmnz1QXYamqsoR2g8-48">
          <mxGeometry width="50" height="50" relative="1" as="geometry">
            <mxPoint x="661" y="-1710" as="sourcePoint" />
            <mxPoint x="701" y="-1710" as="targetPoint" />
          </mxGeometry>
        </mxCell>
        <mxCell id="hL_Gmnz1QXYamqsoR2g8-52" value="" style="endArrow=classic;html=1;rounded=0;exitX=0;exitY=0.75;exitDx=0;exitDy=0;entryX=1;entryY=0.75;entryDx=0;entryDy=0;" edge="1" parent="1" source="hL_Gmnz1QXYamqsoR2g8-48" target="hL_Gmnz1QXYamqsoR2g8-47">
          <mxGeometry width="50" height="50" relative="1" as="geometry">
            <mxPoint x="721" y="-1670" as="sourcePoint" />
            <mxPoint x="644" y="-1638.5" as="targetPoint" />
          </mxGeometry>
        </mxCell>
        <mxCell id="hL_Gmnz1QXYamqsoR2g8-53" value="" style="endArrow=classic;html=1;rounded=0;exitX=1;exitY=0.25;exitDx=0;exitDy=0;entryX=0;entryY=0.25;entryDx=0;entryDy=0;" edge="1" parent="1" source="hL_Gmnz1QXYamqsoR2g8-33" target="hL_Gmnz1QXYamqsoR2g8-45">
          <mxGeometry width="50" height="50" relative="1" as="geometry">
            <mxPoint x="460" y="-1710" as="sourcePoint" />
            <mxPoint x="510" y="-1760" as="targetPoint" />
          </mxGeometry>
        </mxCell>
        <mxCell id="hL_Gmnz1QXYamqsoR2g8-54" value="" style="endArrow=classic;html=1;rounded=0;entryX=1;entryY=0.75;entryDx=0;entryDy=0;exitX=0;exitY=0.75;exitDx=0;exitDy=0;" edge="1" parent="1" source="hL_Gmnz1QXYamqsoR2g8-45" target="hL_Gmnz1QXYamqsoR2g8-33">
          <mxGeometry width="50" height="50" relative="1" as="geometry">
            <mxPoint x="450" y="-1500" as="sourcePoint" />
            <mxPoint x="500" y="-1550" as="targetPoint" />
          </mxGeometry>
        </mxCell>
        <mxCell id="hL_Gmnz1QXYamqsoR2g8-55" value="" style="endArrow=classic;html=1;rounded=0;exitX=1;exitY=0.75;exitDx=0;exitDy=0;entryX=0;entryY=0.75;entryDx=0;entryDy=0;" edge="1" parent="1" source="hL_Gmnz1QXYamqsoR2g8-50" target="hL_Gmnz1QXYamqsoR2g8-21">
          <mxGeometry width="50" height="50" relative="1" as="geometry">
            <mxPoint x="890" y="-1690" as="sourcePoint" />
            <mxPoint x="530" y="-1570" as="targetPoint" />
            <Array as="points">
              <mxPoint x="880" y="-1697" />
              <mxPoint x="880" y="-1640" />
              <mxPoint x="480" y="-1640" />
              <mxPoint x="60" y="-1640" />
              <mxPoint x="60" y="-1697" />
            </Array>
          </mxGeometry>
        </mxCell>
        <mxCell id="hL_Gmnz1QXYamqsoR2g8-56" value="" style="endArrow=classic;html=1;rounded=0;exitX=0;exitY=0.25;exitDx=0;exitDy=0;entryX=1;entryY=0.25;entryDx=0;entryDy=0;" edge="1" parent="1" source="hL_Gmnz1QXYamqsoR2g8-21" target="hL_Gmnz1QXYamqsoR2g8-50">
          <mxGeometry width="50" height="50" relative="1" as="geometry">
            <mxPoint x="100" y="-1750" as="sourcePoint" />
            <mxPoint x="150" y="-1800" as="targetPoint" />
            <Array as="points">
              <mxPoint x="60" y="-1712" />
              <mxPoint x="60" y="-1760" />
              <mxPoint x="470" y="-1760" />
              <mxPoint x="660" y="-1760" />
              <mxPoint x="880" y="-1760" />
              <mxPoint x="880" y="-1712" />
            </Array>
          </mxGeometry>
        </mxCell>
        <mxCell id="hL_Gmnz1QXYamqsoR2g8-57" value="&lt;font color=&quot;#ff0000&quot; face=&quot;Comic Sans MS&quot; style=&quot;font-size: 18px;&quot;&gt;end()&lt;/font&gt;" style="rounded=1;whiteSpace=wrap;html=1;sketch=1;curveFitting=1;jiggle=2;fillColor=#fad7ac;strokeColor=#b46504;" vertex="1" parent="1">
          <mxGeometry x="146" y="-1860" width="67" height="40" as="geometry" />
        </mxCell>
        <mxCell id="hL_Gmnz1QXYamqsoR2g8-58" value="&lt;font color=&quot;#ff0000&quot; face=&quot;Comic Sans MS&quot; style=&quot;font-size: 18px;&quot;&gt;begin()&lt;/font&gt;" style="rounded=1;whiteSpace=wrap;html=1;sketch=1;curveFitting=1;jiggle=2;fillColor=#fad7ac;strokeColor=#b46504;" vertex="1" parent="1">
          <mxGeometry x="349.5" y="-1860" width="67" height="40" as="geometry" />
        </mxCell>
        <mxCell id="hL_Gmnz1QXYamqsoR2g8-59" value="" style="shape=flexArrow;endArrow=classic;html=1;rounded=0;exitX=0.5;exitY=1;exitDx=0;exitDy=0;sketch=1;curveFitting=1;jiggle=2;fillColor=#b0e3e6;strokeColor=#0e8088;" edge="1" parent="1" source="hL_Gmnz1QXYamqsoR2g8-57">
          <mxGeometry width="50" height="50" relative="1" as="geometry">
            <mxPoint x="180" y="-1790" as="sourcePoint" />
            <mxPoint x="180" y="-1730" as="targetPoint" />
          </mxGeometry>
        </mxCell>
        <mxCell id="hL_Gmnz1QXYamqsoR2g8-60" value="" style="shape=flexArrow;endArrow=classic;html=1;rounded=0;exitX=0.5;exitY=1;exitDx=0;exitDy=0;sketch=1;curveFitting=1;jiggle=2;fillColor=#b0e3e6;strokeColor=#0e8088;" edge="1" parent="1">
          <mxGeometry width="50" height="50" relative="1" as="geometry">
            <mxPoint x="382.40999999999997" y="-1820" as="sourcePoint" />
            <mxPoint x="382.40999999999997" y="-1730" as="targetPoint" />
          </mxGeometry>
        </mxCell>
        <mxCell id="hL_Gmnz1QXYamqsoR2g8-61" value="&lt;font color=&quot;#3399ff&quot; face=&quot;Comic Sans MS&quot; style=&quot;font-size: 18px;&quot;&gt;迭代器&lt;/font&gt;" style="text;html=1;align=center;verticalAlign=middle;resizable=0;points=[];autosize=1;strokeColor=none;fillColor=none;" vertex="1" parent="1">
          <mxGeometry x="139.5" y="-1910" width="80" height="40" as="geometry" />
        </mxCell>
        <mxCell id="hL_Gmnz1QXYamqsoR2g8-62" value="&lt;font color=&quot;#3399ff&quot; face=&quot;Comic Sans MS&quot; style=&quot;font-size: 18px;&quot;&gt;迭代器&lt;/font&gt;" style="text;html=1;align=center;verticalAlign=middle;resizable=0;points=[];autosize=1;strokeColor=none;fillColor=none;" vertex="1" parent="1">
          <mxGeometry x="343" y="-1910" width="80" height="40" as="geometry" />
        </mxCell>
        <mxCell id="hL_Gmnz1QXYamqsoR2g8-63" value="&lt;font color=&quot;#ff0000&quot; style=&quot;font-size: 18px;&quot; face=&quot;Comic Sans MS&quot;&gt;&lt;b&gt;list的结构：带头双向循环链表&lt;/b&gt;&lt;/font&gt;" style="text;html=1;align=center;verticalAlign=middle;whiteSpace=wrap;rounded=0;" vertex="1" parent="1">
          <mxGeometry x="300" y="-1620" width="380" height="30" as="geometry" />
        </mxCell>
        <mxCell id="hL_Gmnz1QXYamqsoR2g8-64" value="&lt;font color=&quot;#ff0000&quot; style=&quot;font-size: 16px;&quot; face=&quot;Comic Sans MS&quot;&gt;_prev&lt;/font&gt;" style="rounded=1;whiteSpace=wrap;html=1;strokeWidth=2;fillWeight=4;hachureGap=8;hachureAngle=45;fillColor=#b1ddf0;sketch=1;strokeColor=#10739e;" vertex="1" parent="1">
          <mxGeometry x="321" y="-1289" width="70" height="50" as="geometry" />
        </mxCell>
        <mxCell id="hL_Gmnz1QXYamqsoR2g8-65" value="&lt;font face=&quot;Comic Sans MS&quot; style=&quot;font-size: 16px;&quot; color=&quot;#3399ff&quot;&gt;_data&lt;/font&gt;" style="rounded=1;whiteSpace=wrap;html=1;strokeWidth=2;fillWeight=4;hachureGap=8;hachureAngle=45;fillColor=#fad9d5;sketch=1;strokeColor=#ae4132;" vertex="1" parent="1">
          <mxGeometry x="391" y="-1289" width="70" height="50" as="geometry" />
        </mxCell>
        <mxCell id="hL_Gmnz1QXYamqsoR2g8-66" value="&lt;font color=&quot;#ff0000&quot; face=&quot;Comic Sans MS&quot; size=&quot;3&quot;&gt;_next&lt;/font&gt;" style="rounded=1;whiteSpace=wrap;html=1;strokeWidth=2;fillWeight=4;hachureGap=8;hachureAngle=45;fillColor=#b1ddf0;sketch=1;strokeColor=#10739e;" vertex="1" parent="1">
          <mxGeometry x="461" y="-1289" width="70" height="50" as="geometry" />
        </mxCell>
        <mxCell id="hL_Gmnz1QXYamqsoR2g8-67" value="" style="endArrow=classic;html=1;rounded=0;exitX=1;exitY=0.25;exitDx=0;exitDy=0;entryX=0;entryY=0.25;entryDx=0;entryDy=0;" edge="1" parent="1" source="hL_Gmnz1QXYamqsoR2g8-66" target="hL_Gmnz1QXYamqsoR2g8-64">
          <mxGeometry width="50" height="50" relative="1" as="geometry">
            <mxPoint x="541" y="-1259" as="sourcePoint" />
            <mxPoint x="591" y="-1264" as="targetPoint" />
            <Array as="points">
              <mxPoint x="560" y="-1276" />
              <mxPoint x="560" y="-1320" />
              <mxPoint x="420" y="-1320" />
              <mxPoint x="280" y="-1320" />
              <mxPoint x="280" y="-1276" />
            </Array>
          </mxGeometry>
        </mxCell>
        <mxCell id="hL_Gmnz1QXYamqsoR2g8-68" value="" style="endArrow=classic;html=1;rounded=0;exitX=0;exitY=0.75;exitDx=0;exitDy=0;entryX=1;entryY=0.75;entryDx=0;entryDy=0;" edge="1" parent="1" source="hL_Gmnz1QXYamqsoR2g8-64" target="hL_Gmnz1QXYamqsoR2g8-66">
          <mxGeometry width="50" height="50" relative="1" as="geometry">
            <mxPoint x="251" y="-1259" as="sourcePoint" />
            <mxPoint x="260" y="-1251" as="targetPoint" />
            <Array as="points">
              <mxPoint x="280" y="-1251" />
              <mxPoint x="280" y="-1200" />
              <mxPoint x="430" y="-1200" />
              <mxPoint x="560" y="-1200" />
              <mxPoint x="560" y="-1251" />
            </Array>
          </mxGeometry>
        </mxCell>
        <mxCell id="hL_Gmnz1QXYamqsoR2g8-69" value="&lt;font face=&quot;Comic Sans MS&quot; color=&quot;#3399ff&quot;&gt;&lt;span style=&quot;font-size: 18px;&quot;&gt;head头结点&lt;/span&gt;&lt;/font&gt;" style="text;html=1;align=center;verticalAlign=middle;resizable=0;points=[];autosize=1;strokeColor=none;fillColor=none;" vertex="1" parent="1">
          <mxGeometry x="351" y="-1356" width="120" height="40" as="geometry" />
        </mxCell>
        <mxCell id="hL_Gmnz1QXYamqsoR2g8-79" style="edgeStyle=orthogonalEdgeStyle;rounded=0;orthogonalLoop=1;jettySize=auto;html=1;exitX=1;exitY=0.25;exitDx=0;exitDy=0;entryX=0;entryY=0.25;entryDx=0;entryDy=0;" edge="1" parent="1" source="hL_Gmnz1QXYamqsoR2g8-70" target="hL_Gmnz1QXYamqsoR2g8-71">
          <mxGeometry relative="1" as="geometry" />
        </mxCell>
        <mxCell id="hL_Gmnz1QXYamqsoR2g8-70" value="&lt;font color=&quot;#ff0000&quot; size=&quot;3&quot; face=&quot;Comic Sans MS&quot;&gt;head&lt;/font&gt;" style="rounded=0;whiteSpace=wrap;html=1;fillColor=#b0e3e6;strokeColor=#0e8088;" vertex="1" parent="1">
          <mxGeometry x="210" y="-1110" width="80" height="40" as="geometry" />
        </mxCell>
        <mxCell id="hL_Gmnz1QXYamqsoR2g8-80" style="edgeStyle=orthogonalEdgeStyle;rounded=0;orthogonalLoop=1;jettySize=auto;html=1;exitX=0;exitY=0.75;exitDx=0;exitDy=0;entryX=1;entryY=0.75;entryDx=0;entryDy=0;" edge="1" parent="1" source="hL_Gmnz1QXYamqsoR2g8-71" target="hL_Gmnz1QXYamqsoR2g8-70">
          <mxGeometry relative="1" as="geometry" />
        </mxCell>
        <mxCell id="hL_Gmnz1QXYamqsoR2g8-81" style="edgeStyle=orthogonalEdgeStyle;rounded=0;orthogonalLoop=1;jettySize=auto;html=1;exitX=1;exitY=0.25;exitDx=0;exitDy=0;entryX=0;entryY=0.25;entryDx=0;entryDy=0;" edge="1" parent="1" source="hL_Gmnz1QXYamqsoR2g8-71" target="hL_Gmnz1QXYamqsoR2g8-76">
          <mxGeometry relative="1" as="geometry" />
        </mxCell>
        <mxCell id="hL_Gmnz1QXYamqsoR2g8-105" value="" style="edgeStyle=orthogonalEdgeStyle;rounded=0;orthogonalLoop=1;jettySize=auto;html=1;" edge="1" parent="1" source="hL_Gmnz1QXYamqsoR2g8-71" target="hL_Gmnz1QXYamqsoR2g8-94">
          <mxGeometry relative="1" as="geometry" />
        </mxCell>
        <mxCell id="hL_Gmnz1QXYamqsoR2g8-71" value="&lt;font size=&quot;3&quot; face=&quot;Comic Sans MS&quot;&gt;1&lt;/font&gt;" style="rounded=0;whiteSpace=wrap;html=1;fillColor=#fad7ac;strokeColor=#b46504;" vertex="1" parent="1">
          <mxGeometry x="310" y="-1110" width="80" height="40" as="geometry" />
        </mxCell>
        <mxCell id="hL_Gmnz1QXYamqsoR2g8-82" style="edgeStyle=orthogonalEdgeStyle;rounded=0;orthogonalLoop=1;jettySize=auto;html=1;exitX=0;exitY=0.75;exitDx=0;exitDy=0;entryX=1;entryY=0.75;entryDx=0;entryDy=0;" edge="1" parent="1" source="hL_Gmnz1QXYamqsoR2g8-76" target="hL_Gmnz1QXYamqsoR2g8-71">
          <mxGeometry relative="1" as="geometry" />
        </mxCell>
        <mxCell id="hL_Gmnz1QXYamqsoR2g8-83" style="edgeStyle=orthogonalEdgeStyle;rounded=0;orthogonalLoop=1;jettySize=auto;html=1;exitX=1;exitY=0.25;exitDx=0;exitDy=0;entryX=0;entryY=0.25;entryDx=0;entryDy=0;" edge="1" parent="1" source="hL_Gmnz1QXYamqsoR2g8-76" target="hL_Gmnz1QXYamqsoR2g8-77">
          <mxGeometry relative="1" as="geometry" />
        </mxCell>
        <mxCell id="hL_Gmnz1QXYamqsoR2g8-106" value="" style="edgeStyle=orthogonalEdgeStyle;rounded=0;orthogonalLoop=1;jettySize=auto;html=1;" edge="1" parent="1" source="hL_Gmnz1QXYamqsoR2g8-76" target="hL_Gmnz1QXYamqsoR2g8-97">
          <mxGeometry relative="1" as="geometry" />
        </mxCell>
        <mxCell id="hL_Gmnz1QXYamqsoR2g8-76" value="&lt;font size=&quot;3&quot; face=&quot;Comic Sans MS&quot;&gt;2&lt;/font&gt;" style="rounded=0;whiteSpace=wrap;html=1;fillColor=#fad7ac;strokeColor=#b46504;" vertex="1" parent="1">
          <mxGeometry x="413" y="-1110" width="80" height="40" as="geometry" />
        </mxCell>
        <mxCell id="hL_Gmnz1QXYamqsoR2g8-84" style="edgeStyle=orthogonalEdgeStyle;rounded=0;orthogonalLoop=1;jettySize=auto;html=1;exitX=0;exitY=0.75;exitDx=0;exitDy=0;entryX=1;entryY=0.75;entryDx=0;entryDy=0;" edge="1" parent="1" source="hL_Gmnz1QXYamqsoR2g8-77" target="hL_Gmnz1QXYamqsoR2g8-76">
          <mxGeometry relative="1" as="geometry" />
        </mxCell>
        <mxCell id="hL_Gmnz1QXYamqsoR2g8-86" style="edgeStyle=orthogonalEdgeStyle;rounded=0;orthogonalLoop=1;jettySize=auto;html=1;exitX=1;exitY=0.25;exitDx=0;exitDy=0;entryX=0;entryY=0.25;entryDx=0;entryDy=0;" edge="1" parent="1" source="hL_Gmnz1QXYamqsoR2g8-77" target="hL_Gmnz1QXYamqsoR2g8-78">
          <mxGeometry relative="1" as="geometry" />
        </mxCell>
        <mxCell id="hL_Gmnz1QXYamqsoR2g8-107" value="" style="edgeStyle=orthogonalEdgeStyle;rounded=0;orthogonalLoop=1;jettySize=auto;html=1;" edge="1" parent="1" source="hL_Gmnz1QXYamqsoR2g8-77" target="hL_Gmnz1QXYamqsoR2g8-100">
          <mxGeometry relative="1" as="geometry" />
        </mxCell>
        <mxCell id="hL_Gmnz1QXYamqsoR2g8-77" value="&lt;font size=&quot;3&quot; face=&quot;Comic Sans MS&quot;&gt;3&lt;/font&gt;" style="rounded=0;whiteSpace=wrap;html=1;fillColor=#fad7ac;strokeColor=#b46504;" vertex="1" parent="1">
          <mxGeometry x="517.5" y="-1110" width="80" height="40" as="geometry" />
        </mxCell>
        <mxCell id="hL_Gmnz1QXYamqsoR2g8-89" style="edgeStyle=orthogonalEdgeStyle;rounded=0;orthogonalLoop=1;jettySize=auto;html=1;exitX=0;exitY=0.75;exitDx=0;exitDy=0;" edge="1" parent="1" source="hL_Gmnz1QXYamqsoR2g8-78">
          <mxGeometry relative="1" as="geometry">
            <mxPoint x="599.9999999999998" y="-1080.2941176470588" as="targetPoint" />
          </mxGeometry>
        </mxCell>
        <mxCell id="hL_Gmnz1QXYamqsoR2g8-108" value="" style="edgeStyle=orthogonalEdgeStyle;rounded=0;orthogonalLoop=1;jettySize=auto;html=1;" edge="1" parent="1" source="hL_Gmnz1QXYamqsoR2g8-78" target="hL_Gmnz1QXYamqsoR2g8-102">
          <mxGeometry relative="1" as="geometry" />
        </mxCell>
        <mxCell id="hL_Gmnz1QXYamqsoR2g8-78" value="&lt;font size=&quot;3&quot; face=&quot;Comic Sans MS&quot;&gt;4&lt;/font&gt;" style="rounded=0;whiteSpace=wrap;html=1;fillColor=#fad7ac;strokeColor=#b46504;" vertex="1" parent="1">
          <mxGeometry x="620.5" y="-1110" width="80" height="40" as="geometry" />
        </mxCell>
        <mxCell id="hL_Gmnz1QXYamqsoR2g8-90" style="edgeStyle=orthogonalEdgeStyle;rounded=0;orthogonalLoop=1;jettySize=auto;html=1;exitX=1;exitY=0.25;exitDx=0;exitDy=0;entryX=0;entryY=0.25;entryDx=0;entryDy=0;" edge="1" parent="1" source="hL_Gmnz1QXYamqsoR2g8-91" target="hL_Gmnz1QXYamqsoR2g8-94">
          <mxGeometry relative="1" as="geometry" />
        </mxCell>
        <mxCell id="hL_Gmnz1QXYamqsoR2g8-91" value="&lt;font color=&quot;#ff0000&quot; size=&quot;3&quot; face=&quot;Comic Sans MS&quot;&gt;head&lt;/font&gt;" style="rounded=0;whiteSpace=wrap;html=1;fillColor=#b0e3e6;strokeColor=#0e8088;" vertex="1" parent="1">
          <mxGeometry x="210" y="-990" width="80" height="40" as="geometry" />
        </mxCell>
        <mxCell id="hL_Gmnz1QXYamqsoR2g8-92" style="edgeStyle=orthogonalEdgeStyle;rounded=0;orthogonalLoop=1;jettySize=auto;html=1;exitX=0;exitY=0.75;exitDx=0;exitDy=0;entryX=1;entryY=0.75;entryDx=0;entryDy=0;" edge="1" parent="1" source="hL_Gmnz1QXYamqsoR2g8-94" target="hL_Gmnz1QXYamqsoR2g8-91">
          <mxGeometry relative="1" as="geometry" />
        </mxCell>
        <mxCell id="hL_Gmnz1QXYamqsoR2g8-93" style="edgeStyle=orthogonalEdgeStyle;rounded=0;orthogonalLoop=1;jettySize=auto;html=1;exitX=1;exitY=0.25;exitDx=0;exitDy=0;entryX=0;entryY=0.25;entryDx=0;entryDy=0;" edge="1" parent="1" source="hL_Gmnz1QXYamqsoR2g8-94" target="hL_Gmnz1QXYamqsoR2g8-97">
          <mxGeometry relative="1" as="geometry" />
        </mxCell>
        <mxCell id="hL_Gmnz1QXYamqsoR2g8-94" value="&lt;font size=&quot;3&quot; face=&quot;Comic Sans MS&quot;&gt;1&lt;/font&gt;" style="rounded=0;whiteSpace=wrap;html=1;fillColor=#fad7ac;strokeColor=#b46504;" vertex="1" parent="1">
          <mxGeometry x="310" y="-990" width="80" height="40" as="geometry" />
        </mxCell>
        <mxCell id="hL_Gmnz1QXYamqsoR2g8-95" style="edgeStyle=orthogonalEdgeStyle;rounded=0;orthogonalLoop=1;jettySize=auto;html=1;exitX=0;exitY=0.75;exitDx=0;exitDy=0;entryX=1;entryY=0.75;entryDx=0;entryDy=0;" edge="1" parent="1" source="hL_Gmnz1QXYamqsoR2g8-97" target="hL_Gmnz1QXYamqsoR2g8-94">
          <mxGeometry relative="1" as="geometry" />
        </mxCell>
        <mxCell id="hL_Gmnz1QXYamqsoR2g8-96" style="edgeStyle=orthogonalEdgeStyle;rounded=0;orthogonalLoop=1;jettySize=auto;html=1;exitX=1;exitY=0.25;exitDx=0;exitDy=0;entryX=0;entryY=0.25;entryDx=0;entryDy=0;" edge="1" parent="1" source="hL_Gmnz1QXYamqsoR2g8-97" target="hL_Gmnz1QXYamqsoR2g8-100">
          <mxGeometry relative="1" as="geometry" />
        </mxCell>
        <mxCell id="hL_Gmnz1QXYamqsoR2g8-97" value="&lt;font size=&quot;3&quot; face=&quot;Comic Sans MS&quot;&gt;2&lt;/font&gt;" style="rounded=0;whiteSpace=wrap;html=1;fillColor=#fad7ac;strokeColor=#b46504;" vertex="1" parent="1">
          <mxGeometry x="413" y="-990" width="80" height="40" as="geometry" />
        </mxCell>
        <mxCell id="hL_Gmnz1QXYamqsoR2g8-98" style="edgeStyle=orthogonalEdgeStyle;rounded=0;orthogonalLoop=1;jettySize=auto;html=1;exitX=0;exitY=0.75;exitDx=0;exitDy=0;entryX=1;entryY=0.75;entryDx=0;entryDy=0;" edge="1" parent="1" source="hL_Gmnz1QXYamqsoR2g8-100" target="hL_Gmnz1QXYamqsoR2g8-97">
          <mxGeometry relative="1" as="geometry" />
        </mxCell>
        <mxCell id="hL_Gmnz1QXYamqsoR2g8-99" style="edgeStyle=orthogonalEdgeStyle;rounded=0;orthogonalLoop=1;jettySize=auto;html=1;exitX=1;exitY=0.25;exitDx=0;exitDy=0;entryX=0;entryY=0.25;entryDx=0;entryDy=0;" edge="1" parent="1" source="hL_Gmnz1QXYamqsoR2g8-100" target="hL_Gmnz1QXYamqsoR2g8-102">
          <mxGeometry relative="1" as="geometry" />
        </mxCell>
        <mxCell id="hL_Gmnz1QXYamqsoR2g8-100" value="&lt;font size=&quot;3&quot; face=&quot;Comic Sans MS&quot;&gt;3&lt;/font&gt;" style="rounded=0;whiteSpace=wrap;html=1;fillColor=#fad7ac;strokeColor=#b46504;" vertex="1" parent="1">
          <mxGeometry x="517.5" y="-990" width="80" height="40" as="geometry" />
        </mxCell>
        <mxCell id="hL_Gmnz1QXYamqsoR2g8-101" style="edgeStyle=orthogonalEdgeStyle;rounded=0;orthogonalLoop=1;jettySize=auto;html=1;exitX=0;exitY=0.75;exitDx=0;exitDy=0;" edge="1" parent="1" source="hL_Gmnz1QXYamqsoR2g8-102">
          <mxGeometry relative="1" as="geometry">
            <mxPoint x="599.9999999999998" y="-960.2941176470588" as="targetPoint" />
          </mxGeometry>
        </mxCell>
        <mxCell id="hL_Gmnz1QXYamqsoR2g8-102" value="&lt;font size=&quot;3&quot; face=&quot;Comic Sans MS&quot;&gt;4&lt;/font&gt;" style="rounded=0;whiteSpace=wrap;html=1;fillColor=#fad7ac;strokeColor=#b46504;" vertex="1" parent="1">
          <mxGeometry x="620.5" y="-990" width="80" height="40" as="geometry" />
        </mxCell>
        <mxCell id="hL_Gmnz1QXYamqsoR2g8-103" value="&lt;font color=&quot;#3399ff&quot; face=&quot;Comic Sans MS&quot; style=&quot;font-size: 18px;&quot;&gt;lt1&lt;/font&gt;" style="text;html=1;align=center;verticalAlign=middle;resizable=0;points=[];autosize=1;strokeColor=none;fillColor=none;" vertex="1" parent="1">
          <mxGeometry x="105" y="-1110" width="50" height="40" as="geometry" />
        </mxCell>
        <mxCell id="hL_Gmnz1QXYamqsoR2g8-104" value="&lt;font color=&quot;#3399ff&quot; face=&quot;Comic Sans MS&quot; style=&quot;font-size: 18px;&quot;&gt;tmp&lt;/font&gt;" style="text;html=1;align=center;verticalAlign=middle;resizable=0;points=[];autosize=1;strokeColor=none;fillColor=none;" vertex="1" parent="1">
          <mxGeometry x="99" y="-990" width="60" height="40" as="geometry" />
        </mxCell>
        <mxCell id="hL_Gmnz1QXYamqsoR2g8-109" value="&lt;font color=&quot;#3399ff&quot; face=&quot;Comic Sans MS&quot; style=&quot;font-size: 18px;&quot;&gt;push_back&lt;/font&gt;" style="text;html=1;align=center;verticalAlign=middle;resizable=0;points=[];autosize=1;strokeColor=none;fillColor=none;" vertex="1" parent="1">
          <mxGeometry x="343" y="-1050" width="110" height="40" as="geometry" />
        </mxCell>
        <mxCell id="hL_Gmnz1QXYamqsoR2g8-110" value="&lt;font color=&quot;#3399ff&quot; face=&quot;Comic Sans MS&quot; style=&quot;font-size: 18px;&quot;&gt;push_back&lt;/font&gt;" style="text;html=1;align=center;verticalAlign=middle;resizable=0;points=[];autosize=1;strokeColor=none;fillColor=none;" vertex="1" parent="1">
          <mxGeometry x="453" y="-1050" width="110" height="40" as="geometry" />
        </mxCell>
        <mxCell id="hL_Gmnz1QXYamqsoR2g8-111" value="&lt;font color=&quot;#3399ff&quot; face=&quot;Comic Sans MS&quot; style=&quot;font-size: 18px;&quot;&gt;push_back&lt;/font&gt;" style="text;html=1;align=center;verticalAlign=middle;resizable=0;points=[];autosize=1;strokeColor=none;fillColor=none;" vertex="1" parent="1">
          <mxGeometry x="560" y="-1050" width="110" height="40" as="geometry" />
        </mxCell>
        <mxCell id="hL_Gmnz1QXYamqsoR2g8-112" value="&lt;font color=&quot;#3399ff&quot; face=&quot;Comic Sans MS&quot; style=&quot;font-size: 18px;&quot;&gt;push_back&lt;/font&gt;" style="text;html=1;align=center;verticalAlign=middle;resizable=0;points=[];autosize=1;strokeColor=none;fillColor=none;" vertex="1" parent="1">
          <mxGeometry x="670" y="-1050" width="110" height="40" as="geometry" />
        </mxCell>
        <mxCell id="hL_Gmnz1QXYamqsoR2g8-116" value="" style="endArrow=classic;html=1;rounded=0;exitX=1;exitY=0.25;exitDx=0;exitDy=0;entryX=0;entryY=0.25;entryDx=0;entryDy=0;" edge="1" parent="1" source="hL_Gmnz1QXYamqsoR2g8-115">
          <mxGeometry width="50" height="50" relative="1" as="geometry">
            <mxPoint x="551" y="-1249" as="sourcePoint" />
            <mxPoint x="395.9999999999998" y="-1289.5" as="targetPoint" />
            <Array as="points">
              <mxPoint x="570" y="-1266" />
              <mxPoint x="570" y="-1310" />
              <mxPoint x="430" y="-1310" />
              <mxPoint x="290" y="-1310" />
              <mxPoint x="290" y="-1266" />
            </Array>
          </mxGeometry>
        </mxCell>
        <mxCell id="hL_Gmnz1QXYamqsoR2g8-117" value="" style="endArrow=classic;html=1;rounded=0;exitX=0;exitY=0.75;exitDx=0;exitDy=0;entryX=1;entryY=0.75;entryDx=0;entryDy=0;" edge="1" parent="1" target="hL_Gmnz1QXYamqsoR2g8-115">
          <mxGeometry width="50" height="50" relative="1" as="geometry">
            <mxPoint x="395.9999999999998" y="-1264.5" as="sourcePoint" />
            <mxPoint x="270" y="-1241" as="targetPoint" />
            <Array as="points">
              <mxPoint x="290" y="-1241" />
              <mxPoint x="290" y="-1190" />
              <mxPoint x="440" y="-1190" />
              <mxPoint x="570" y="-1190" />
              <mxPoint x="570" y="-1241" />
            </Array>
          </mxGeometry>
        </mxCell>
        <mxCell id="hL_Gmnz1QXYamqsoR2g8-118" value="&lt;font color=&quot;#ff0000&quot; size=&quot;3&quot; face=&quot;Comic Sans MS&quot;&gt;head&lt;/font&gt;" style="rounded=0;whiteSpace=wrap;html=1;fillColor=#b0e3e6;strokeColor=#0e8088;" vertex="1" parent="1">
          <mxGeometry x="217.94" y="-860.06" width="80" height="40" as="geometry" />
        </mxCell>
        <mxCell id="hL_Gmnz1QXYamqsoR2g8-119" style="edgeStyle=orthogonalEdgeStyle;rounded=0;orthogonalLoop=1;jettySize=auto;html=1;exitX=1;exitY=0.25;exitDx=0;exitDy=0;entryX=0;entryY=0.25;entryDx=0;entryDy=0;" edge="1" parent="1" source="hL_Gmnz1QXYamqsoR2g8-118" target="hL_Gmnz1QXYamqsoR2g8-118">
          <mxGeometry relative="1" as="geometry">
            <Array as="points">
              <mxPoint x="314.94" y="-850.06" />
              <mxPoint x="314.94" y="-880.06" />
              <mxPoint x="194.94" y="-880.06" />
              <mxPoint x="194.94" y="-850.06" />
            </Array>
          </mxGeometry>
        </mxCell>
        <mxCell id="hL_Gmnz1QXYamqsoR2g8-121" style="edgeStyle=orthogonalEdgeStyle;rounded=0;orthogonalLoop=1;jettySize=auto;html=1;exitX=0;exitY=0.75;exitDx=0;exitDy=0;entryX=1;entryY=0.75;entryDx=0;entryDy=0;" edge="1" parent="1" source="hL_Gmnz1QXYamqsoR2g8-118" target="hL_Gmnz1QXYamqsoR2g8-118">
          <mxGeometry relative="1" as="geometry" />
        </mxCell>
        <mxCell id="hL_Gmnz1QXYamqsoR2g8-122" value="&lt;font color=&quot;#3399ff&quot; face=&quot;Comic Sans MS&quot; style=&quot;font-size: 18px;&quot;&gt;lt2&lt;/font&gt;" style="text;html=1;align=center;verticalAlign=middle;resizable=0;points=[];autosize=1;strokeColor=none;fillColor=none;" vertex="1" parent="1">
          <mxGeometry x="109.94" y="-860.06" width="50" height="40" as="geometry" />
        </mxCell>
        <mxCell id="hL_Gmnz1QXYamqsoR2g8-123" style="edgeStyle=orthogonalEdgeStyle;rounded=0;orthogonalLoop=1;jettySize=auto;html=1;exitX=1;exitY=0.25;exitDx=0;exitDy=0;entryX=0;entryY=0.25;entryDx=0;entryDy=0;" edge="1" parent="1" target="hL_Gmnz1QXYamqsoR2g8-127">
          <mxGeometry relative="1" as="geometry">
            <mxPoint x="233.52999999999997" y="-667" as="sourcePoint" />
          </mxGeometry>
        </mxCell>
        <mxCell id="hL_Gmnz1QXYamqsoR2g8-125" style="edgeStyle=orthogonalEdgeStyle;rounded=0;orthogonalLoop=1;jettySize=auto;html=1;exitX=0;exitY=0.75;exitDx=0;exitDy=0;entryX=1;entryY=0.75;entryDx=0;entryDy=0;" edge="1" parent="1" source="hL_Gmnz1QXYamqsoR2g8-127">
          <mxGeometry relative="1" as="geometry">
            <mxPoint x="233.52999999999997" y="-647" as="targetPoint" />
          </mxGeometry>
        </mxCell>
        <mxCell id="hL_Gmnz1QXYamqsoR2g8-126" style="edgeStyle=orthogonalEdgeStyle;rounded=0;orthogonalLoop=1;jettySize=auto;html=1;exitX=1;exitY=0.25;exitDx=0;exitDy=0;entryX=0;entryY=0.25;entryDx=0;entryDy=0;" edge="1" parent="1" source="hL_Gmnz1QXYamqsoR2g8-127" target="hL_Gmnz1QXYamqsoR2g8-130">
          <mxGeometry relative="1" as="geometry" />
        </mxCell>
        <mxCell id="hL_Gmnz1QXYamqsoR2g8-127" value="&lt;font size=&quot;3&quot; face=&quot;Comic Sans MS&quot;&gt;1&lt;/font&gt;" style="rounded=0;whiteSpace=wrap;html=1;fillColor=#fad7ac;strokeColor=#b46504;" vertex="1" parent="1">
          <mxGeometry x="253.52999999999997" y="-677" width="80" height="40" as="geometry" />
        </mxCell>
        <mxCell id="hL_Gmnz1QXYamqsoR2g8-128" style="edgeStyle=orthogonalEdgeStyle;rounded=0;orthogonalLoop=1;jettySize=auto;html=1;exitX=0;exitY=0.75;exitDx=0;exitDy=0;entryX=1;entryY=0.75;entryDx=0;entryDy=0;" edge="1" parent="1" source="hL_Gmnz1QXYamqsoR2g8-130" target="hL_Gmnz1QXYamqsoR2g8-127">
          <mxGeometry relative="1" as="geometry" />
        </mxCell>
        <mxCell id="hL_Gmnz1QXYamqsoR2g8-129" style="edgeStyle=orthogonalEdgeStyle;rounded=0;orthogonalLoop=1;jettySize=auto;html=1;exitX=1;exitY=0.25;exitDx=0;exitDy=0;entryX=0;entryY=0.25;entryDx=0;entryDy=0;" edge="1" parent="1" source="hL_Gmnz1QXYamqsoR2g8-130" target="hL_Gmnz1QXYamqsoR2g8-133">
          <mxGeometry relative="1" as="geometry" />
        </mxCell>
        <mxCell id="hL_Gmnz1QXYamqsoR2g8-130" value="&lt;font size=&quot;3&quot; face=&quot;Comic Sans MS&quot;&gt;2&lt;/font&gt;" style="rounded=0;whiteSpace=wrap;html=1;fillColor=#fad7ac;strokeColor=#b46504;" vertex="1" parent="1">
          <mxGeometry x="356.53" y="-677" width="80" height="40" as="geometry" />
        </mxCell>
        <mxCell id="hL_Gmnz1QXYamqsoR2g8-131" style="edgeStyle=orthogonalEdgeStyle;rounded=0;orthogonalLoop=1;jettySize=auto;html=1;exitX=0;exitY=0.75;exitDx=0;exitDy=0;entryX=1;entryY=0.75;entryDx=0;entryDy=0;" edge="1" parent="1" source="hL_Gmnz1QXYamqsoR2g8-133" target="hL_Gmnz1QXYamqsoR2g8-130">
          <mxGeometry relative="1" as="geometry" />
        </mxCell>
        <mxCell id="hL_Gmnz1QXYamqsoR2g8-132" style="edgeStyle=orthogonalEdgeStyle;rounded=0;orthogonalLoop=1;jettySize=auto;html=1;exitX=1;exitY=0.25;exitDx=0;exitDy=0;entryX=0;entryY=0.25;entryDx=0;entryDy=0;" edge="1" parent="1" source="hL_Gmnz1QXYamqsoR2g8-133" target="hL_Gmnz1QXYamqsoR2g8-135">
          <mxGeometry relative="1" as="geometry" />
        </mxCell>
        <mxCell id="hL_Gmnz1QXYamqsoR2g8-133" value="&lt;font size=&quot;3&quot; face=&quot;Comic Sans MS&quot;&gt;3&lt;/font&gt;" style="rounded=0;whiteSpace=wrap;html=1;fillColor=#fad7ac;strokeColor=#b46504;" vertex="1" parent="1">
          <mxGeometry x="568.03" y="-677" width="80" height="40" as="geometry" />
        </mxCell>
        <mxCell id="hL_Gmnz1QXYamqsoR2g8-136" style="edgeStyle=orthogonalEdgeStyle;rounded=0;orthogonalLoop=1;jettySize=auto;html=1;exitX=0;exitY=0.75;exitDx=0;exitDy=0;entryX=1;entryY=0.75;entryDx=0;entryDy=0;" edge="1" parent="1" source="hL_Gmnz1QXYamqsoR2g8-135" target="hL_Gmnz1QXYamqsoR2g8-133">
          <mxGeometry relative="1" as="geometry" />
        </mxCell>
        <mxCell id="hL_Gmnz1QXYamqsoR2g8-141" style="edgeStyle=orthogonalEdgeStyle;rounded=0;orthogonalLoop=1;jettySize=auto;html=1;exitX=1;exitY=0.25;exitDx=0;exitDy=0;" edge="1" parent="1" source="hL_Gmnz1QXYamqsoR2g8-135">
          <mxGeometry relative="1" as="geometry">
            <mxPoint x="782.4711764705883" y="-667" as="targetPoint" />
          </mxGeometry>
        </mxCell>
        <mxCell id="hL_Gmnz1QXYamqsoR2g8-135" value="&lt;font size=&quot;3&quot; face=&quot;Comic Sans MS&quot;&gt;4&lt;/font&gt;" style="rounded=0;whiteSpace=wrap;html=1;fillColor=#fad7ac;strokeColor=#b46504;" vertex="1" parent="1">
          <mxGeometry x="671.03" y="-677" width="80" height="40" as="geometry" />
        </mxCell>
        <mxCell id="hL_Gmnz1QXYamqsoR2g8-138" style="edgeStyle=orthogonalEdgeStyle;rounded=0;orthogonalLoop=1;jettySize=auto;html=1;exitX=0;exitY=0.25;exitDx=0;exitDy=0;" edge="1" parent="1" source="hL_Gmnz1QXYamqsoR2g8-137">
          <mxGeometry relative="1" as="geometry">
            <mxPoint x="115.47117647058829" y="-664.6470588235293" as="targetPoint" />
          </mxGeometry>
        </mxCell>
        <mxCell id="hL_Gmnz1QXYamqsoR2g8-137" value="&lt;font size=&quot;3&quot; face=&quot;Comic Sans MS&quot;&gt;1&lt;/font&gt;" style="rounded=0;whiteSpace=wrap;html=1;fillColor=#fad7ac;strokeColor=#b46504;" vertex="1" parent="1">
          <mxGeometry x="150.53" y="-675" width="80" height="40" as="geometry" />
        </mxCell>
        <mxCell id="hL_Gmnz1QXYamqsoR2g8-140" value="" style="endArrow=classic;html=1;rounded=0;entryX=0;entryY=0.75;entryDx=0;entryDy=0;" edge="1" parent="1" target="hL_Gmnz1QXYamqsoR2g8-137">
          <mxGeometry width="50" height="50" relative="1" as="geometry">
            <mxPoint x="116.53" y="-645" as="sourcePoint" />
            <mxPoint x="120.53" y="-643" as="targetPoint" />
          </mxGeometry>
        </mxCell>
        <mxCell id="hL_Gmnz1QXYamqsoR2g8-142" value="" style="endArrow=classic;html=1;rounded=0;" edge="1" parent="1">
          <mxGeometry width="50" height="50" relative="1" as="geometry">
            <mxPoint x="785.53" y="-646" as="sourcePoint" />
            <mxPoint x="753.53" y="-646" as="targetPoint" />
          </mxGeometry>
        </mxCell>
        <mxCell id="hL_Gmnz1QXYamqsoR2g8-149" style="edgeStyle=orthogonalEdgeStyle;rounded=0;orthogonalLoop=1;jettySize=auto;html=1;exitX=1;exitY=0.25;exitDx=0;exitDy=0;" edge="1" parent="1" source="hL_Gmnz1QXYamqsoR2g8-143">
          <mxGeometry relative="1" as="geometry">
            <mxPoint x="572.4064705882354" y="-750.5882352941176" as="targetPoint" />
          </mxGeometry>
        </mxCell>
        <mxCell id="hL_Gmnz1QXYamqsoR2g8-143" value="&lt;font size=&quot;3&quot; face=&quot;Comic Sans MS&quot;&gt;9&lt;/font&gt;" style="rounded=0;whiteSpace=wrap;html=1;fillColor=#fad7ac;strokeColor=#b46504;" vertex="1" parent="1">
          <mxGeometry x="467" y="-761" width="80" height="40" as="geometry" />
        </mxCell>
        <mxCell id="hL_Gmnz1QXYamqsoR2g8-144" value="&lt;font color=&quot;#3399ff&quot; face=&quot;Comic Sans MS&quot; style=&quot;font-size: 18px;&quot;&gt;newnode&lt;/font&gt;" style="text;html=1;align=center;verticalAlign=middle;resizable=0;points=[];autosize=1;strokeColor=none;fillColor=none;" vertex="1" parent="1">
          <mxGeometry x="356.53" y="-756" width="89" height="34" as="geometry" />
        </mxCell>
        <mxCell id="hL_Gmnz1QXYamqsoR2g8-148" style="edgeStyle=orthogonalEdgeStyle;rounded=0;orthogonalLoop=1;jettySize=auto;html=1;exitX=0;exitY=0.75;exitDx=0;exitDy=0;entryX=0.965;entryY=0.765;entryDx=0;entryDy=0;entryPerimeter=0;" edge="1" parent="1" source="hL_Gmnz1QXYamqsoR2g8-143" target="hL_Gmnz1QXYamqsoR2g8-144">
          <mxGeometry relative="1" as="geometry" />
        </mxCell>
        <mxCell id="hL_Gmnz1QXYamqsoR2g8-150" style="edgeStyle=orthogonalEdgeStyle;rounded=0;orthogonalLoop=1;jettySize=auto;html=1;exitX=1;exitY=0.25;exitDx=0;exitDy=0;entryX=0;entryY=0.25;entryDx=0;entryDy=0;" edge="1" parent="1" target="hL_Gmnz1QXYamqsoR2g8-153">
          <mxGeometry relative="1" as="geometry">
            <mxPoint x="214.05999999999997" y="-374" as="sourcePoint" />
          </mxGeometry>
        </mxCell>
        <mxCell id="hL_Gmnz1QXYamqsoR2g8-151" style="edgeStyle=orthogonalEdgeStyle;rounded=0;orthogonalLoop=1;jettySize=auto;html=1;exitX=0;exitY=0.75;exitDx=0;exitDy=0;entryX=1;entryY=0.75;entryDx=0;entryDy=0;" edge="1" parent="1" source="hL_Gmnz1QXYamqsoR2g8-153">
          <mxGeometry relative="1" as="geometry">
            <mxPoint x="214.05999999999997" y="-354" as="targetPoint" />
          </mxGeometry>
        </mxCell>
        <mxCell id="hL_Gmnz1QXYamqsoR2g8-152" style="edgeStyle=orthogonalEdgeStyle;rounded=0;orthogonalLoop=1;jettySize=auto;html=1;exitX=1;exitY=0.25;exitDx=0;exitDy=0;entryX=0;entryY=0.25;entryDx=0;entryDy=0;" edge="1" parent="1" source="hL_Gmnz1QXYamqsoR2g8-153" target="hL_Gmnz1QXYamqsoR2g8-156">
          <mxGeometry relative="1" as="geometry" />
        </mxCell>
        <mxCell id="hL_Gmnz1QXYamqsoR2g8-153" value="&lt;font size=&quot;3&quot; face=&quot;Comic Sans MS&quot;&gt;1&lt;/font&gt;" style="rounded=0;whiteSpace=wrap;html=1;fillColor=#fad7ac;strokeColor=#b46504;" vertex="1" parent="1">
          <mxGeometry x="234.05999999999997" y="-384" width="80" height="40" as="geometry" />
        </mxCell>
        <mxCell id="hL_Gmnz1QXYamqsoR2g8-154" style="edgeStyle=orthogonalEdgeStyle;rounded=0;orthogonalLoop=1;jettySize=auto;html=1;exitX=0;exitY=0.75;exitDx=0;exitDy=0;entryX=1;entryY=0.75;entryDx=0;entryDy=0;" edge="1" parent="1" source="hL_Gmnz1QXYamqsoR2g8-156" target="hL_Gmnz1QXYamqsoR2g8-153">
          <mxGeometry relative="1" as="geometry" />
        </mxCell>
        <mxCell id="hL_Gmnz1QXYamqsoR2g8-155" style="edgeStyle=orthogonalEdgeStyle;rounded=0;orthogonalLoop=1;jettySize=auto;html=1;exitX=1;exitY=0.25;exitDx=0;exitDy=0;entryX=0;entryY=0.25;entryDx=0;entryDy=0;" edge="1" parent="1" source="hL_Gmnz1QXYamqsoR2g8-156" target="hL_Gmnz1QXYamqsoR2g8-168">
          <mxGeometry relative="1" as="geometry" />
        </mxCell>
        <mxCell id="hL_Gmnz1QXYamqsoR2g8-156" value="&lt;font size=&quot;3&quot; face=&quot;Comic Sans MS&quot;&gt;2&lt;/font&gt;" style="rounded=0;whiteSpace=wrap;html=1;fillColor=#fad7ac;strokeColor=#b46504;" vertex="1" parent="1">
          <mxGeometry x="337.05999999999995" y="-384" width="80" height="40" as="geometry" />
        </mxCell>
        <mxCell id="hL_Gmnz1QXYamqsoR2g8-158" style="edgeStyle=orthogonalEdgeStyle;rounded=0;orthogonalLoop=1;jettySize=auto;html=1;exitX=1;exitY=0.25;exitDx=0;exitDy=0;entryX=0;entryY=0.25;entryDx=0;entryDy=0;" edge="1" parent="1" source="hL_Gmnz1QXYamqsoR2g8-159" target="hL_Gmnz1QXYamqsoR2g8-162">
          <mxGeometry relative="1" as="geometry" />
        </mxCell>
        <mxCell id="hL_Gmnz1QXYamqsoR2g8-173" style="edgeStyle=orthogonalEdgeStyle;rounded=0;orthogonalLoop=1;jettySize=auto;html=1;exitX=0;exitY=0.75;exitDx=0;exitDy=0;entryX=1;entryY=0.5;entryDx=0;entryDy=0;" edge="1" parent="1" source="hL_Gmnz1QXYamqsoR2g8-159" target="hL_Gmnz1QXYamqsoR2g8-168">
          <mxGeometry relative="1" as="geometry">
            <Array as="points">
              <mxPoint x="553" y="-354" />
              <mxPoint x="553" y="-448" />
            </Array>
          </mxGeometry>
        </mxCell>
        <mxCell id="hL_Gmnz1QXYamqsoR2g8-159" value="&lt;font size=&quot;3&quot; face=&quot;Comic Sans MS&quot;&gt;3&lt;/font&gt;" style="rounded=0;whiteSpace=wrap;html=1;fillColor=#fad7ac;strokeColor=#b46504;" vertex="1" parent="1">
          <mxGeometry x="588.56" y="-384" width="80" height="40" as="geometry" />
        </mxCell>
        <mxCell id="hL_Gmnz1QXYamqsoR2g8-160" style="edgeStyle=orthogonalEdgeStyle;rounded=0;orthogonalLoop=1;jettySize=auto;html=1;exitX=0;exitY=0.75;exitDx=0;exitDy=0;entryX=1;entryY=0.75;entryDx=0;entryDy=0;" edge="1" parent="1" source="hL_Gmnz1QXYamqsoR2g8-162" target="hL_Gmnz1QXYamqsoR2g8-159">
          <mxGeometry relative="1" as="geometry" />
        </mxCell>
        <mxCell id="hL_Gmnz1QXYamqsoR2g8-161" style="edgeStyle=orthogonalEdgeStyle;rounded=0;orthogonalLoop=1;jettySize=auto;html=1;exitX=1;exitY=0.25;exitDx=0;exitDy=0;" edge="1" parent="1" source="hL_Gmnz1QXYamqsoR2g8-162">
          <mxGeometry relative="1" as="geometry">
            <mxPoint x="803.0011764705882" y="-374" as="targetPoint" />
          </mxGeometry>
        </mxCell>
        <mxCell id="hL_Gmnz1QXYamqsoR2g8-162" value="&lt;font size=&quot;3&quot; face=&quot;Comic Sans MS&quot;&gt;4&lt;/font&gt;" style="rounded=0;whiteSpace=wrap;html=1;fillColor=#fad7ac;strokeColor=#b46504;" vertex="1" parent="1">
          <mxGeometry x="691.56" y="-384" width="80" height="40" as="geometry" />
        </mxCell>
        <mxCell id="hL_Gmnz1QXYamqsoR2g8-163" style="edgeStyle=orthogonalEdgeStyle;rounded=0;orthogonalLoop=1;jettySize=auto;html=1;exitX=0;exitY=0.25;exitDx=0;exitDy=0;" edge="1" parent="1" source="hL_Gmnz1QXYamqsoR2g8-164">
          <mxGeometry relative="1" as="geometry">
            <mxPoint x="96.00117647058829" y="-371.6470588235293" as="targetPoint" />
          </mxGeometry>
        </mxCell>
        <mxCell id="hL_Gmnz1QXYamqsoR2g8-164" value="&lt;font size=&quot;3&quot; face=&quot;Comic Sans MS&quot;&gt;1&lt;/font&gt;" style="rounded=0;whiteSpace=wrap;html=1;fillColor=#fad7ac;strokeColor=#b46504;" vertex="1" parent="1">
          <mxGeometry x="131.06" y="-382" width="80" height="40" as="geometry" />
        </mxCell>
        <mxCell id="hL_Gmnz1QXYamqsoR2g8-165" value="" style="endArrow=classic;html=1;rounded=0;entryX=0;entryY=0.75;entryDx=0;entryDy=0;" edge="1" parent="1" target="hL_Gmnz1QXYamqsoR2g8-164">
          <mxGeometry width="50" height="50" relative="1" as="geometry">
            <mxPoint x="97.06" y="-352" as="sourcePoint" />
            <mxPoint x="101.06" y="-350" as="targetPoint" />
          </mxGeometry>
        </mxCell>
        <mxCell id="hL_Gmnz1QXYamqsoR2g8-166" value="" style="endArrow=classic;html=1;rounded=0;" edge="1" parent="1">
          <mxGeometry width="50" height="50" relative="1" as="geometry">
            <mxPoint x="806.06" y="-353" as="sourcePoint" />
            <mxPoint x="774.06" y="-353" as="targetPoint" />
          </mxGeometry>
        </mxCell>
        <mxCell id="hL_Gmnz1QXYamqsoR2g8-171" style="edgeStyle=orthogonalEdgeStyle;rounded=0;orthogonalLoop=1;jettySize=auto;html=1;exitX=0;exitY=0.75;exitDx=0;exitDy=0;entryX=1;entryY=0.75;entryDx=0;entryDy=0;" edge="1" parent="1" source="hL_Gmnz1QXYamqsoR2g8-168" target="hL_Gmnz1QXYamqsoR2g8-156">
          <mxGeometry relative="1" as="geometry">
            <mxPoint x="440.82352941176464" y="-438.2352941176471" as="targetPoint" />
            <Array as="points">
              <mxPoint x="456" y="-438" />
              <mxPoint x="456" y="-354" />
            </Array>
          </mxGeometry>
        </mxCell>
        <mxCell id="hL_Gmnz1QXYamqsoR2g8-172" style="edgeStyle=orthogonalEdgeStyle;rounded=0;orthogonalLoop=1;jettySize=auto;html=1;exitX=1;exitY=0.25;exitDx=0;exitDy=0;entryX=0;entryY=0.25;entryDx=0;entryDy=0;" edge="1" parent="1" source="hL_Gmnz1QXYamqsoR2g8-168" target="hL_Gmnz1QXYamqsoR2g8-159">
          <mxGeometry relative="1" as="geometry">
            <Array as="points">
              <mxPoint x="564" y="-458" />
              <mxPoint x="564" y="-374" />
            </Array>
          </mxGeometry>
        </mxCell>
        <mxCell id="hL_Gmnz1QXYamqsoR2g8-168" value="&lt;font size=&quot;3&quot; face=&quot;Comic Sans MS&quot;&gt;9&lt;/font&gt;" style="rounded=0;whiteSpace=wrap;html=1;fillColor=#fad7ac;strokeColor=#b46504;" vertex="1" parent="1">
          <mxGeometry x="461.53" y="-468" width="80" height="40" as="geometry" />
        </mxCell>
        <mxCell id="hL_Gmnz1QXYamqsoR2g8-169" value="&lt;font color=&quot;#3399ff&quot; face=&quot;Comic Sans MS&quot; style=&quot;font-size: 18px;&quot;&gt;newnode&lt;/font&gt;" style="text;html=1;align=center;verticalAlign=middle;resizable=0;points=[];autosize=1;strokeColor=none;fillColor=none;" vertex="1" parent="1">
          <mxGeometry x="464.53" y="-511" width="89" height="34" as="geometry" />
        </mxCell>
        <mxCell id="hL_Gmnz1QXYamqsoR2g8-174" value="" style="endArrow=classic;html=1;rounded=0;entryX=0;entryY=1;entryDx=0;entryDy=0;" edge="1" parent="1" target="hL_Gmnz1QXYamqsoR2g8-130">
          <mxGeometry width="50" height="50" relative="1" as="geometry">
            <mxPoint x="357" y="-599" as="sourcePoint" />
            <mxPoint x="356" y="-624" as="targetPoint" />
          </mxGeometry>
        </mxCell>
        <mxCell id="hL_Gmnz1QXYamqsoR2g8-175" value="&lt;font face=&quot;Comic Sans MS&quot; color=&quot;#3399ff&quot;&gt;&lt;span style=&quot;font-size: 18px;&quot;&gt;prev&lt;/span&gt;&lt;/font&gt;" style="text;html=1;align=center;verticalAlign=middle;resizable=0;points=[];autosize=1;strokeColor=none;fillColor=none;" vertex="1" parent="1">
          <mxGeometry x="328.5" y="-598" width="55" height="34" as="geometry" />
        </mxCell>
        <mxCell id="hL_Gmnz1QXYamqsoR2g8-176" value="" style="endArrow=classic;html=1;rounded=0;entryX=0;entryY=1;entryDx=0;entryDy=0;" edge="1" parent="1">
          <mxGeometry width="50" height="50" relative="1" as="geometry">
            <mxPoint x="570" y="-593" as="sourcePoint" />
            <mxPoint x="570" y="-631" as="targetPoint" />
          </mxGeometry>
        </mxCell>
        <mxCell id="hL_Gmnz1QXYamqsoR2g8-177" value="&lt;font face=&quot;Comic Sans MS&quot; color=&quot;#3399ff&quot;&gt;&lt;span style=&quot;font-size: 18px;&quot;&gt;cur&lt;/span&gt;&lt;/font&gt;" style="text;html=1;align=center;verticalAlign=middle;resizable=0;points=[];autosize=1;strokeColor=none;fillColor=none;" vertex="1" parent="1">
          <mxGeometry x="546.5" y="-592" width="45" height="34" as="geometry" />
        </mxCell>
        <mxCell id="hL_Gmnz1QXYamqsoR2g8-178" value="" style="endArrow=classic;html=1;rounded=0;entryX=0;entryY=1;entryDx=0;entryDy=0;" edge="1" parent="1">
          <mxGeometry width="50" height="50" relative="1" as="geometry">
            <mxPoint x="336.5" y="-292" as="sourcePoint" />
            <mxPoint x="336.5" y="-330" as="targetPoint" />
          </mxGeometry>
        </mxCell>
        <mxCell id="hL_Gmnz1QXYamqsoR2g8-179" value="&lt;font face=&quot;Comic Sans MS&quot; color=&quot;#3399ff&quot;&gt;&lt;span style=&quot;font-size: 18px;&quot;&gt;prev&lt;/span&gt;&lt;/font&gt;" style="text;html=1;align=center;verticalAlign=middle;resizable=0;points=[];autosize=1;strokeColor=none;fillColor=none;" vertex="1" parent="1">
          <mxGeometry x="308" y="-291" width="55" height="34" as="geometry" />
        </mxCell>
        <mxCell id="hL_Gmnz1QXYamqsoR2g8-180" value="" style="endArrow=classic;html=1;rounded=0;entryX=0;entryY=1;entryDx=0;entryDy=0;" edge="1" parent="1">
          <mxGeometry width="50" height="50" relative="1" as="geometry">
            <mxPoint x="590.5" y="-286" as="sourcePoint" />
            <mxPoint x="590.5" y="-324" as="targetPoint" />
          </mxGeometry>
        </mxCell>
        <mxCell id="hL_Gmnz1QXYamqsoR2g8-181" value="&lt;font face=&quot;Comic Sans MS&quot; color=&quot;#3399ff&quot;&gt;&lt;span style=&quot;font-size: 18px;&quot;&gt;cur&lt;/span&gt;&lt;/font&gt;" style="text;html=1;align=center;verticalAlign=middle;resizable=0;points=[];autosize=1;strokeColor=none;fillColor=none;" vertex="1" parent="1">
          <mxGeometry x="567" y="-285" width="45" height="34" as="geometry" />
        </mxCell>
        <mxCell id="hL_Gmnz1QXYamqsoR2g8-183" style="edgeStyle=orthogonalEdgeStyle;rounded=0;orthogonalLoop=1;jettySize=auto;html=1;exitX=1;exitY=0.25;exitDx=0;exitDy=0;entryX=0;entryY=0.25;entryDx=0;entryDy=0;" edge="1" parent="1" target="hL_Gmnz1QXYamqsoR2g8-186">
          <mxGeometry relative="1" as="geometry">
            <mxPoint x="227.99999999999997" y="-162" as="sourcePoint" />
          </mxGeometry>
        </mxCell>
        <mxCell id="hL_Gmnz1QXYamqsoR2g8-184" style="edgeStyle=orthogonalEdgeStyle;rounded=0;orthogonalLoop=1;jettySize=auto;html=1;exitX=0;exitY=0.75;exitDx=0;exitDy=0;entryX=1;entryY=0.75;entryDx=0;entryDy=0;" edge="1" parent="1" source="hL_Gmnz1QXYamqsoR2g8-186">
          <mxGeometry relative="1" as="geometry">
            <mxPoint x="227.99999999999997" y="-142" as="targetPoint" />
          </mxGeometry>
        </mxCell>
        <mxCell id="hL_Gmnz1QXYamqsoR2g8-185" style="edgeStyle=orthogonalEdgeStyle;rounded=0;orthogonalLoop=1;jettySize=auto;html=1;exitX=1;exitY=0.25;exitDx=0;exitDy=0;entryX=0;entryY=0.25;entryDx=0;entryDy=0;" edge="1" parent="1" source="hL_Gmnz1QXYamqsoR2g8-186" target="hL_Gmnz1QXYamqsoR2g8-189">
          <mxGeometry relative="1" as="geometry" />
        </mxCell>
        <mxCell id="hL_Gmnz1QXYamqsoR2g8-186" value="&lt;font size=&quot;3&quot; face=&quot;Comic Sans MS&quot;&gt;1&lt;/font&gt;" style="rounded=0;whiteSpace=wrap;html=1;fillColor=#fad7ac;strokeColor=#b46504;" vertex="1" parent="1">
          <mxGeometry x="247.99999999999994" y="-172" width="80" height="40" as="geometry" />
        </mxCell>
        <mxCell id="hL_Gmnz1QXYamqsoR2g8-187" style="edgeStyle=orthogonalEdgeStyle;rounded=0;orthogonalLoop=1;jettySize=auto;html=1;exitX=0;exitY=0.75;exitDx=0;exitDy=0;entryX=1;entryY=0.75;entryDx=0;entryDy=0;" edge="1" parent="1" source="hL_Gmnz1QXYamqsoR2g8-189" target="hL_Gmnz1QXYamqsoR2g8-186">
          <mxGeometry relative="1" as="geometry" />
        </mxCell>
        <mxCell id="hL_Gmnz1QXYamqsoR2g8-188" style="edgeStyle=orthogonalEdgeStyle;rounded=0;orthogonalLoop=1;jettySize=auto;html=1;exitX=1;exitY=0.25;exitDx=0;exitDy=0;entryX=0;entryY=0.25;entryDx=0;entryDy=0;" edge="1" parent="1" source="hL_Gmnz1QXYamqsoR2g8-189" target="hL_Gmnz1QXYamqsoR2g8-192">
          <mxGeometry relative="1" as="geometry" />
        </mxCell>
        <mxCell id="hL_Gmnz1QXYamqsoR2g8-189" value="&lt;font size=&quot;3&quot; face=&quot;Comic Sans MS&quot;&gt;2&lt;/font&gt;" style="rounded=0;whiteSpace=wrap;html=1;fillColor=#fad7ac;strokeColor=#b46504;" vertex="1" parent="1">
          <mxGeometry x="350.99999999999994" y="-172" width="80" height="40" as="geometry" />
        </mxCell>
        <mxCell id="hL_Gmnz1QXYamqsoR2g8-190" style="edgeStyle=orthogonalEdgeStyle;rounded=0;orthogonalLoop=1;jettySize=auto;html=1;exitX=0;exitY=0.75;exitDx=0;exitDy=0;entryX=1;entryY=0.75;entryDx=0;entryDy=0;" edge="1" parent="1" source="hL_Gmnz1QXYamqsoR2g8-192" target="hL_Gmnz1QXYamqsoR2g8-189">
          <mxGeometry relative="1" as="geometry" />
        </mxCell>
        <mxCell id="hL_Gmnz1QXYamqsoR2g8-191" style="edgeStyle=orthogonalEdgeStyle;rounded=0;orthogonalLoop=1;jettySize=auto;html=1;exitX=1;exitY=0.25;exitDx=0;exitDy=0;entryX=0;entryY=0.25;entryDx=0;entryDy=0;" edge="1" parent="1" source="hL_Gmnz1QXYamqsoR2g8-192" target="hL_Gmnz1QXYamqsoR2g8-195">
          <mxGeometry relative="1" as="geometry" />
        </mxCell>
        <mxCell id="hL_Gmnz1QXYamqsoR2g8-192" value="&lt;font size=&quot;3&quot; face=&quot;Comic Sans MS&quot;&gt;3&lt;/font&gt;" style="rounded=0;whiteSpace=wrap;html=1;fillColor=#fad7ac;strokeColor=#b46504;" vertex="1" parent="1">
          <mxGeometry x="469.5" y="-172" width="80" height="40" as="geometry" />
        </mxCell>
        <mxCell id="hL_Gmnz1QXYamqsoR2g8-193" style="edgeStyle=orthogonalEdgeStyle;rounded=0;orthogonalLoop=1;jettySize=auto;html=1;exitX=0;exitY=0.75;exitDx=0;exitDy=0;entryX=1;entryY=0.75;entryDx=0;entryDy=0;" edge="1" parent="1" source="hL_Gmnz1QXYamqsoR2g8-195" target="hL_Gmnz1QXYamqsoR2g8-192">
          <mxGeometry relative="1" as="geometry" />
        </mxCell>
        <mxCell id="hL_Gmnz1QXYamqsoR2g8-194" style="edgeStyle=orthogonalEdgeStyle;rounded=0;orthogonalLoop=1;jettySize=auto;html=1;exitX=1;exitY=0.25;exitDx=0;exitDy=0;" edge="1" parent="1" source="hL_Gmnz1QXYamqsoR2g8-195">
          <mxGeometry relative="1" as="geometry">
            <mxPoint x="683.9411764705883" y="-162" as="targetPoint" />
          </mxGeometry>
        </mxCell>
        <mxCell id="hL_Gmnz1QXYamqsoR2g8-195" value="&lt;font size=&quot;3&quot; face=&quot;Comic Sans MS&quot;&gt;4&lt;/font&gt;" style="rounded=0;whiteSpace=wrap;html=1;fillColor=#fad7ac;strokeColor=#b46504;" vertex="1" parent="1">
          <mxGeometry x="572.5" y="-172" width="80" height="40" as="geometry" />
        </mxCell>
        <mxCell id="hL_Gmnz1QXYamqsoR2g8-196" style="edgeStyle=orthogonalEdgeStyle;rounded=0;orthogonalLoop=1;jettySize=auto;html=1;exitX=0;exitY=0.25;exitDx=0;exitDy=0;" edge="1" parent="1" source="hL_Gmnz1QXYamqsoR2g8-197">
          <mxGeometry relative="1" as="geometry">
            <mxPoint x="109.94117647058829" y="-159.64705882352928" as="targetPoint" />
          </mxGeometry>
        </mxCell>
        <mxCell id="hL_Gmnz1QXYamqsoR2g8-197" value="&lt;font size=&quot;3&quot; face=&quot;Comic Sans MS&quot;&gt;1&lt;/font&gt;" style="rounded=0;whiteSpace=wrap;html=1;fillColor=#fad7ac;strokeColor=#b46504;" vertex="1" parent="1">
          <mxGeometry x="145" y="-170" width="80" height="40" as="geometry" />
        </mxCell>
        <mxCell id="hL_Gmnz1QXYamqsoR2g8-198" value="" style="endArrow=classic;html=1;rounded=0;entryX=0;entryY=0.75;entryDx=0;entryDy=0;" edge="1" parent="1" target="hL_Gmnz1QXYamqsoR2g8-197">
          <mxGeometry width="50" height="50" relative="1" as="geometry">
            <mxPoint x="111" y="-140" as="sourcePoint" />
            <mxPoint x="115" y="-138" as="targetPoint" />
          </mxGeometry>
        </mxCell>
        <mxCell id="hL_Gmnz1QXYamqsoR2g8-199" value="" style="endArrow=classic;html=1;rounded=0;" edge="1" parent="1">
          <mxGeometry width="50" height="50" relative="1" as="geometry">
            <mxPoint x="687" y="-141" as="sourcePoint" />
            <mxPoint x="655" y="-141" as="targetPoint" />
          </mxGeometry>
        </mxCell>
        <mxCell id="hL_Gmnz1QXYamqsoR2g8-200" value="" style="endArrow=classic;html=1;rounded=0;entryX=0;entryY=1;entryDx=0;entryDy=0;" edge="1" parent="1" target="hL_Gmnz1QXYamqsoR2g8-189">
          <mxGeometry width="50" height="50" relative="1" as="geometry">
            <mxPoint x="351.46999999999997" y="-94" as="sourcePoint" />
            <mxPoint x="350.46999999999997" y="-119" as="targetPoint" />
          </mxGeometry>
        </mxCell>
        <mxCell id="hL_Gmnz1QXYamqsoR2g8-201" value="&lt;font face=&quot;Comic Sans MS&quot; color=&quot;#3399ff&quot;&gt;&lt;span style=&quot;font-size: 18px;&quot;&gt;pos&lt;/span&gt;&lt;/font&gt;" style="text;html=1;align=center;verticalAlign=middle;resizable=0;points=[];autosize=1;strokeColor=none;fillColor=none;" vertex="1" parent="1">
          <mxGeometry x="327.96999999999997" y="-93" width="46" height="34" as="geometry" />
        </mxCell>
        <mxCell id="hL_Gmnz1QXYamqsoR2g8-206" value="" style="endArrow=classic;html=1;rounded=0;entryX=0;entryY=1;entryDx=0;entryDy=0;" edge="1" parent="1">
          <mxGeometry width="50" height="50" relative="1" as="geometry">
            <mxPoint x="248" y="-92" as="sourcePoint" />
            <mxPoint x="248" y="-130" as="targetPoint" />
          </mxGeometry>
        </mxCell>
        <mxCell id="hL_Gmnz1QXYamqsoR2g8-207" value="&lt;font face=&quot;Comic Sans MS&quot; color=&quot;#3399ff&quot;&gt;&lt;span style=&quot;font-size: 18px;&quot;&gt;prev&lt;/span&gt;&lt;/font&gt;" style="text;html=1;align=center;verticalAlign=middle;resizable=0;points=[];autosize=1;strokeColor=none;fillColor=none;" vertex="1" parent="1">
          <mxGeometry x="219.5" y="-91" width="55" height="34" as="geometry" />
        </mxCell>
        <mxCell id="hL_Gmnz1QXYamqsoR2g8-210" value="" style="endArrow=classic;html=1;rounded=0;entryX=0;entryY=1;entryDx=0;entryDy=0;" edge="1" parent="1">
          <mxGeometry width="50" height="50" relative="1" as="geometry">
            <mxPoint x="469.03" y="-92" as="sourcePoint" />
            <mxPoint x="469.03" y="-130" as="targetPoint" />
          </mxGeometry>
        </mxCell>
        <mxCell id="hL_Gmnz1QXYamqsoR2g8-211" value="&lt;font face=&quot;Comic Sans MS&quot; color=&quot;#3399ff&quot;&gt;&lt;span style=&quot;font-size: 18px;&quot;&gt;next&lt;/span&gt;&lt;/font&gt;" style="text;html=1;align=center;verticalAlign=middle;resizable=0;points=[];autosize=1;strokeColor=none;fillColor=none;" vertex="1" parent="1">
          <mxGeometry x="440.53" y="-91" width="56" height="34" as="geometry" />
        </mxCell>
        <mxCell id="hL_Gmnz1QXYamqsoR2g8-236" style="edgeStyle=orthogonalEdgeStyle;rounded=0;orthogonalLoop=1;jettySize=auto;html=1;exitX=1;exitY=0.25;exitDx=0;exitDy=0;entryX=0;entryY=0.25;entryDx=0;entryDy=0;" edge="1" parent="1" target="hL_Gmnz1QXYamqsoR2g8-239">
          <mxGeometry relative="1" as="geometry">
            <mxPoint x="959.14" y="-164" as="sourcePoint" />
          </mxGeometry>
        </mxCell>
        <mxCell id="hL_Gmnz1QXYamqsoR2g8-237" style="edgeStyle=orthogonalEdgeStyle;rounded=0;orthogonalLoop=1;jettySize=auto;html=1;exitX=0;exitY=0.75;exitDx=0;exitDy=0;entryX=1;entryY=0.75;entryDx=0;entryDy=0;" edge="1" parent="1" source="hL_Gmnz1QXYamqsoR2g8-239">
          <mxGeometry relative="1" as="geometry">
            <mxPoint x="959.14" y="-144" as="targetPoint" />
          </mxGeometry>
        </mxCell>
        <mxCell id="hL_Gmnz1QXYamqsoR2g8-238" style="edgeStyle=orthogonalEdgeStyle;rounded=0;orthogonalLoop=1;jettySize=auto;html=1;exitX=1;exitY=0.25;exitDx=0;exitDy=0;entryX=0;entryY=0.25;entryDx=0;entryDy=0;" edge="1" parent="1" source="hL_Gmnz1QXYamqsoR2g8-239" target="hL_Gmnz1QXYamqsoR2g8-245">
          <mxGeometry relative="1" as="geometry">
            <mxPoint x="1082.1399999999999" y="-164" as="targetPoint" />
          </mxGeometry>
        </mxCell>
        <mxCell id="hL_Gmnz1QXYamqsoR2g8-239" value="&lt;font size=&quot;3&quot; face=&quot;Comic Sans MS&quot;&gt;1&lt;/font&gt;" style="rounded=0;whiteSpace=wrap;html=1;fillColor=#fad7ac;strokeColor=#b46504;" vertex="1" parent="1">
          <mxGeometry x="979.1399999999999" y="-174" width="80" height="40" as="geometry" />
        </mxCell>
        <mxCell id="hL_Gmnz1QXYamqsoR2g8-240" style="edgeStyle=orthogonalEdgeStyle;rounded=0;orthogonalLoop=1;jettySize=auto;html=1;entryX=1;entryY=0.75;entryDx=0;entryDy=0;exitX=0;exitY=0.75;exitDx=0;exitDy=0;" edge="1" parent="1" source="hL_Gmnz1QXYamqsoR2g8-245" target="hL_Gmnz1QXYamqsoR2g8-239">
          <mxGeometry relative="1" as="geometry">
            <mxPoint x="1082" y="-144" as="sourcePoint" />
          </mxGeometry>
        </mxCell>
        <mxCell id="hL_Gmnz1QXYamqsoR2g8-244" style="edgeStyle=orthogonalEdgeStyle;rounded=0;orthogonalLoop=1;jettySize=auto;html=1;exitX=1;exitY=0.25;exitDx=0;exitDy=0;entryX=0;entryY=0.25;entryDx=0;entryDy=0;" edge="1" parent="1" source="hL_Gmnz1QXYamqsoR2g8-245" target="hL_Gmnz1QXYamqsoR2g8-248">
          <mxGeometry relative="1" as="geometry" />
        </mxCell>
        <mxCell id="hL_Gmnz1QXYamqsoR2g8-245" value="&lt;font size=&quot;3&quot; face=&quot;Comic Sans MS&quot;&gt;3&lt;/font&gt;" style="rounded=0;whiteSpace=wrap;html=1;fillColor=#fad7ac;strokeColor=#b46504;" vertex="1" parent="1">
          <mxGeometry x="1200.6399999999999" y="-174" width="80" height="40" as="geometry" />
        </mxCell>
        <mxCell id="hL_Gmnz1QXYamqsoR2g8-246" style="edgeStyle=orthogonalEdgeStyle;rounded=0;orthogonalLoop=1;jettySize=auto;html=1;exitX=0;exitY=0.75;exitDx=0;exitDy=0;entryX=1;entryY=0.75;entryDx=0;entryDy=0;" edge="1" parent="1" source="hL_Gmnz1QXYamqsoR2g8-248" target="hL_Gmnz1QXYamqsoR2g8-245">
          <mxGeometry relative="1" as="geometry" />
        </mxCell>
        <mxCell id="hL_Gmnz1QXYamqsoR2g8-247" style="edgeStyle=orthogonalEdgeStyle;rounded=0;orthogonalLoop=1;jettySize=auto;html=1;exitX=1;exitY=0.25;exitDx=0;exitDy=0;" edge="1" parent="1" source="hL_Gmnz1QXYamqsoR2g8-248">
          <mxGeometry relative="1" as="geometry">
            <mxPoint x="1415.0811764705882" y="-164" as="targetPoint" />
          </mxGeometry>
        </mxCell>
        <mxCell id="hL_Gmnz1QXYamqsoR2g8-248" value="&lt;font size=&quot;3&quot; face=&quot;Comic Sans MS&quot;&gt;4&lt;/font&gt;" style="rounded=0;whiteSpace=wrap;html=1;fillColor=#fad7ac;strokeColor=#b46504;" vertex="1" parent="1">
          <mxGeometry x="1303.6399999999999" y="-174" width="80" height="40" as="geometry" />
        </mxCell>
        <mxCell id="hL_Gmnz1QXYamqsoR2g8-249" style="edgeStyle=orthogonalEdgeStyle;rounded=0;orthogonalLoop=1;jettySize=auto;html=1;exitX=0;exitY=0.25;exitDx=0;exitDy=0;" edge="1" parent="1" source="hL_Gmnz1QXYamqsoR2g8-250">
          <mxGeometry relative="1" as="geometry">
            <mxPoint x="841.0811764705883" y="-161.64705882352928" as="targetPoint" />
          </mxGeometry>
        </mxCell>
        <mxCell id="hL_Gmnz1QXYamqsoR2g8-250" value="&lt;font size=&quot;3&quot; face=&quot;Comic Sans MS&quot;&gt;1&lt;/font&gt;" style="rounded=0;whiteSpace=wrap;html=1;fillColor=#fad7ac;strokeColor=#b46504;" vertex="1" parent="1">
          <mxGeometry x="876.14" y="-172" width="80" height="40" as="geometry" />
        </mxCell>
        <mxCell id="hL_Gmnz1QXYamqsoR2g8-251" value="" style="endArrow=classic;html=1;rounded=0;entryX=0;entryY=0.75;entryDx=0;entryDy=0;" edge="1" parent="1" target="hL_Gmnz1QXYamqsoR2g8-250">
          <mxGeometry width="50" height="50" relative="1" as="geometry">
            <mxPoint x="842.14" y="-142" as="sourcePoint" />
            <mxPoint x="846.14" y="-140" as="targetPoint" />
          </mxGeometry>
        </mxCell>
        <mxCell id="hL_Gmnz1QXYamqsoR2g8-252" value="" style="endArrow=classic;html=1;rounded=0;" edge="1" parent="1">
          <mxGeometry width="50" height="50" relative="1" as="geometry">
            <mxPoint x="1418.1399999999999" y="-143" as="sourcePoint" />
            <mxPoint x="1386.1399999999999" y="-143" as="targetPoint" />
          </mxGeometry>
        </mxCell>
        <mxCell id="hL_Gmnz1QXYamqsoR2g8-253" value="" style="endArrow=classic;html=1;rounded=0;entryX=0;entryY=1;entryDx=0;entryDy=0;" edge="1" parent="1">
          <mxGeometry width="50" height="50" relative="1" as="geometry">
            <mxPoint x="1200.5" y="-96" as="sourcePoint" />
            <mxPoint x="1200.03" y="-134" as="targetPoint" />
          </mxGeometry>
        </mxCell>
        <mxCell id="hL_Gmnz1QXYamqsoR2g8-254" value="&lt;font face=&quot;Comic Sans MS&quot; color=&quot;#3399ff&quot;&gt;&lt;span style=&quot;font-size: 18px;&quot;&gt;pos&lt;/span&gt;&lt;/font&gt;" style="text;html=1;align=center;verticalAlign=middle;resizable=0;points=[];autosize=1;strokeColor=none;fillColor=none;" vertex="1" parent="1">
          <mxGeometry x="1177" y="-95" width="46" height="34" as="geometry" />
        </mxCell>
        <mxCell id="hL_Gmnz1QXYamqsoR2g8-255" value="" style="endArrow=classic;html=1;rounded=0;entryX=0;entryY=1;entryDx=0;entryDy=0;" edge="1" parent="1">
          <mxGeometry width="50" height="50" relative="1" as="geometry">
            <mxPoint x="979.14" y="-94" as="sourcePoint" />
            <mxPoint x="979.14" y="-132" as="targetPoint" />
          </mxGeometry>
        </mxCell>
        <mxCell id="hL_Gmnz1QXYamqsoR2g8-256" value="&lt;font face=&quot;Comic Sans MS&quot; color=&quot;#3399ff&quot;&gt;&lt;span style=&quot;font-size: 18px;&quot;&gt;prev&lt;/span&gt;&lt;/font&gt;" style="text;html=1;align=center;verticalAlign=middle;resizable=0;points=[];autosize=1;strokeColor=none;fillColor=none;" vertex="1" parent="1">
          <mxGeometry x="950.64" y="-93" width="55" height="34" as="geometry" />
        </mxCell>
        <mxCell id="hL_Gmnz1QXYamqsoR2g8-257" value="" style="endArrow=classic;html=1;rounded=0;entryX=0;entryY=1;entryDx=0;entryDy=0;" edge="1" parent="1">
          <mxGeometry width="50" height="50" relative="1" as="geometry">
            <mxPoint x="1502" y="-253" as="sourcePoint" />
            <mxPoint x="1502" y="-291" as="targetPoint" />
          </mxGeometry>
        </mxCell>
        <mxCell id="hL_Gmnz1QXYamqsoR2g8-258" value="&lt;font face=&quot;Comic Sans MS&quot; color=&quot;#3399ff&quot;&gt;&lt;span style=&quot;font-size: 18px;&quot;&gt;next&lt;/span&gt;&lt;/font&gt;" style="text;html=1;align=center;verticalAlign=middle;resizable=0;points=[];autosize=1;strokeColor=none;fillColor=none;" vertex="1" parent="1">
          <mxGeometry x="1521" y="-259" width="56" height="34" as="geometry" />
        </mxCell>
      </root>
    </mxGraphModel>
  </diagram>
</mxfile>
